<svg width="20" height="20" viewBox="0 0 20 20" fill="none" xmlns="http://www.w3.org/2000/svg">
<path d="M18.8718 8.02139C18.5641 7.70054 18.2564 7.37968 18.1538 7.16578C18.0513 6.95187 18.1538 6.41711 18.2564 5.98931C18.359 5.34759 18.4615 4.49198 18.0513 3.85027C17.641 3.20856 16.8205 3.1016 16.1026 2.99465C15.6923 2.8877 15.2821 2.8877 15.0769 2.6738C14.8718 2.56685 14.6667 2.13904 14.4615 1.71123C14.1538 1.06952 13.8462 0.213905 13.0256 7.82311e-07C12.3077 -0.213903 11.5897 0.106953 10.9744 0.53476C10.5641 0.748664 10.1538 0.962568 9.94872 0.962568C9.64103 0.962568 9.23077 0.748664 8.92308 0.53476C8.30769 0.213905 7.58974 -0.213903 6.8718 7.82311e-07C6.15385 0.320856 5.84615 1.06952 5.53846 1.81818C5.33333 2.13904 5.12821 2.56685 4.92308 2.6738C4.71795 2.78075 4.30769 2.8877 3.89744 2.99465C3.17949 3.1016 2.35897 3.20856 1.94872 3.85027C1.4359 4.49198 1.64103 5.34759 1.74359 6.09626C1.84615 6.52407 1.94872 6.95187 1.84615 7.27273C1.74359 7.48663 1.4359 7.80749 1.12821 8.02139C0.615385 8.55615 0 9.19786 0 9.94652C0 10.8021 0.615385 11.3369 1.12821 11.8717C1.4359 12.1925 1.74359 12.5134 1.84615 12.7273C1.94872 12.9412 1.84615 13.4759 1.74359 13.9037C1.64103 14.6524 1.4359 15.508 1.94872 16.1497C2.35897 16.7914 3.17949 16.8984 3.89744 17.0053C4.30769 17.1123 4.71795 17.1123 4.92308 17.3262C5.12821 17.4332 5.33333 17.861 5.53846 18.1818C5.84615 18.8235 6.15385 19.6791 6.97436 19.893C7.07692 19.893 7.28205 20 7.38462 20C7.89744 20 8.51282 19.6791 8.92308 19.4652C9.33333 19.2513 9.74359 19.0374 9.94872 19.0374C10.2564 19.0374 10.6667 19.2513 10.9744 19.4652C11.5897 19.7861 12.3077 20.2139 13.0256 20C13.7436 19.7861 14.1538 18.9305 14.4615 18.2888C14.6667 17.861 14.8718 17.4332 15.0769 17.3262C15.2821 17.2193 15.6923 17.1123 16.1026 17.0053C16.8205 16.8984 17.641 16.7914 18.0513 16.1497C18.4615 15.508 18.359 14.6524 18.2564 13.9037C18.1538 13.4759 18.0513 13.0481 18.1538 12.7273C18.2564 12.5134 18.5641 12.1925 18.8718 11.8717C19.3846 11.3369 20 10.8021 20 9.94652C20 9.09091 19.3846 8.55615 18.8718 8.02139ZM8.20513 6.41711H9.4359L9.64103 7.37968C9.74359 7.80749 9.84615 8.23529 9.94872 8.6631C10.0513 8.23529 10.1538 7.70054 10.2564 7.37968L10.5641 6.41711H11.7949L12 10.0535H11.0769V8.77005C11.0769 8.34225 11.0769 7.91444 11.0769 7.27273C10.9744 7.70054 10.8718 8.34225 10.6667 8.6631L10.2564 9.94652H9.53846L9.23077 8.6631C9.23077 8.23529 9.12821 7.70054 9.02564 7.27273C9.02564 7.80749 9.02564 8.34225 8.92308 8.77005V9.94652H8L8.20513 6.41711ZM5.4359 10.0535C5.02564 10.0535 4.61539 9.94652 4.41026 9.83957L4.61539 9.09091C4.82051 9.09091 5.12821 9.19786 5.53846 9.19786C5.84615 9.19786 6.05128 9.09091 6.05128 8.87701C6.05128 8.6631 5.84615 8.55615 5.53846 8.4492C4.82051 8.34225 4.51282 8.02139 4.51282 7.48663C4.51282 6.84492 5.02564 6.31016 5.94872 6.31016C6.35897 6.31016 6.66667 6.41711 6.8718 6.52407L6.5641 7.27273C6.46154 7.16578 6.15385 7.05882 5.84615 7.05882C5.53846 7.05882 5.4359 7.16578 5.4359 7.27273C5.4359 7.48663 5.64103 7.48663 6.05128 7.70054C6.66667 7.91444 6.97436 8.23529 6.97436 8.77005C6.97436 9.51872 6.46154 10.0535 5.4359 10.0535ZM13.641 13.0481L9.33333 15.8289C9.23077 15.9358 9.12821 16.0428 9.02564 16.0428C8.82051 16.0428 8.71795 15.9358 8.61539 15.8289L7.07692 14.1176C6.8718 13.9037 6.8718 13.4759 7.07692 13.262C7.28205 13.0481 7.69231 13.0481 7.89744 13.262L9.12821 14.6524L13.0256 12.0856C13.3333 11.8717 13.7436 11.9786 13.8462 12.2995C14.0513 12.5134 13.9487 12.9412 13.641 13.0481ZM14.0513 10.0535C13.641 10.0535 13.2308 9.94652 13.0256 9.83957L13.2308 9.09091C13.4359 9.19786 13.7436 9.30481 14.1538 9.30481C14.4615 9.30481 14.6667 9.19786 14.6667 8.98396C14.6667 8.77005 14.4615 8.6631 14.1538 8.55615C13.5385 8.34225 13.2308 8.02139 13.2308 7.48663C13.2308 6.84492 13.7436 6.31016 14.6667 6.31016C15.0769 6.31016 15.3846 6.41711 15.5897 6.52407L15.3846 7.27273C15.2821 7.16578 14.9744 7.05882 14.6667 7.05882C14.359 7.05882 14.2564 7.16578 14.2564 7.27273C14.2564 7.48663 14.4615 7.48663 14.8718 7.70054C15.4872 7.91444 15.7949 8.23529 15.7949 8.77005C15.5897 9.51872 15.0769 10.0535 14.0513 10.0535Z" fill="#66CC66"/>
</svg>
